# Blender 4.3.2
# www.blender.org
o Cone
v 0.000000 1.000000 0.228574
v 0.195090 0.980785 0.228574
v 0.382683 0.923880 0.228574
v 0.555570 0.831470 0.228574
v 0.707107 0.707107 0.228574
v 0.831470 0.555570 0.228574
v 0.923879 0.382683 0.228574
v 0.980785 0.195090 0.228574
v 1.000000 -0.000000 0.228574
v 0.980785 -0.195090 0.228574
v 0.923879 -0.382683 0.228574
v 0.831470 -0.555570 0.228574
v 0.707107 -0.707107 0.228574
v 0.555570 -0.831470 0.228574
v 0.382683 -0.923880 0.228574
v 0.195090 -0.980785 0.228574
v 0.000000 -1.000000 0.228574
v -0.195090 -0.980785 0.228574
v -0.382683 -0.923880 0.228574
v -0.555570 -0.831470 0.228574
v -0.707107 -0.707107 0.228574
v -0.831470 -0.555570 0.228574
v -0.923879 -0.382683 0.228574
v -0.980785 -0.195090 0.228574
v -1.000000 -0.000000 0.228574
v -0.980785 0.195090 0.228574
v -0.923879 0.382683 0.228574
v -0.831470 0.555570 0.228574
v -0.707107 0.707107 0.228574
v -0.555570 0.831470 0.228574
v -0.382683 0.923880 0.228574
v -0.195090 0.980785 0.228574
v 0.000000 0.500000 0.080231
v 0.097545 0.490393 0.080231
v 0.191342 0.461940 0.080231
v 0.277785 0.415735 0.080231
v 0.353553 0.353553 0.080231
v 0.415735 0.277785 0.080231
v 0.461940 0.191342 0.080231
v 0.490393 0.097545 0.080231
v 0.500000 -0.000000 0.080231
v 0.490393 -0.097545 0.080231
v 0.461940 -0.191342 0.080231
v 0.415735 -0.277785 0.080231
v 0.353553 -0.353553 0.080231
v 0.277785 -0.415735 0.080231
v 0.191342 -0.461940 0.080231
v 0.097545 -0.490393 0.080231
v 0.000000 -0.500000 0.080231
v -0.097545 -0.490393 0.080231
v -0.191342 -0.461940 0.080231
v -0.277785 -0.415735 0.080231
v -0.353553 -0.353553 0.080231
v -0.415735 -0.277785 0.080231
v -0.461940 -0.191342 0.080231
v -0.490393 -0.097545 0.080231
v -0.500000 -0.000000 0.080231
v -0.490393 0.097545 0.080231
v -0.461940 0.191342 0.080231
v -0.415735 0.277785 0.080231
v -0.353553 0.353553 0.080231
v -0.277785 0.415735 0.080231
v -0.191342 0.461940 0.080231
v -0.097545 0.490393 0.080231
v 0.014913 0.074972 0.000087
v 0.029253 0.070622 0.000087
v 0.042468 0.063558 0.000087
v 0.054052 0.054052 0.000087
v 0.063558 0.042468 0.000087
v 0.070622 0.029253 0.000087
v 0.074972 0.014913 0.000087
v 0.076441 0.000000 0.000087
v 0.074972 -0.014913 0.000087
v 0.070622 -0.029253 0.000087
v 0.063558 -0.042468 0.000087
v 0.054052 -0.054052 0.000087
v 0.042468 -0.063558 0.000087
v 0.029253 -0.070622 0.000087
v 0.014913 -0.074972 0.000087
v 0.000000 -0.076441 0.000087
v -0.014913 -0.074972 0.000087
v -0.029253 -0.070622 0.000087
v -0.042468 -0.063558 0.000087
v -0.054052 -0.054052 0.000087
v -0.063558 -0.042468 0.000087
v -0.070622 -0.029253 0.000087
v -0.074972 -0.014913 0.000087
v -0.076441 0.000000 0.000087
v -0.074972 0.014913 0.000087
v -0.070622 0.029253 0.000087
v -0.063558 0.042468 0.000087
v -0.054052 0.054052 0.000087
v -0.042468 0.063558 0.000087
v -0.029253 0.070622 0.000087
v -0.014913 0.074972 0.000087
v 0.000000 0.076441 0.000087
vn -0.0000 0.9908 0.1356
vn 0.1933 0.9717 0.1356
vn 0.3791 0.9153 0.1356
vn 0.5504 0.8238 0.1356
vn 0.7006 0.7006 0.1356
vn 0.8238 0.5504 0.1356
vn 0.9153 0.3791 0.1356
vn 0.9717 0.1933 0.1356
vn 0.9908 -0.0000 0.1356
vn 0.9717 -0.1933 0.1356
vn 0.9153 -0.3791 0.1356
vn 0.8238 -0.5504 0.1356
vn 0.7006 -0.7006 0.1356
vn 0.5504 -0.8238 0.1356
vn 0.3791 -0.9153 0.1356
vn 0.1933 -0.9717 0.1356
vn -0.0000 -0.9908 0.1356
vn -0.1933 -0.9717 0.1356
vn -0.3791 -0.9153 0.1356
vn -0.5504 -0.8238 0.1356
vn -0.7006 -0.7006 0.1356
vn -0.8238 -0.5504 0.1356
vn -0.9153 -0.3791 0.1356
vn -0.9717 -0.1933 0.1356
vn -0.9908 -0.0000 0.1356
vn -0.9717 0.1933 0.1356
vn -0.9153 0.3791 0.1356
vn -0.8238 0.5504 0.1356
vn -0.7006 0.7006 0.1356
vn -0.5504 0.8238 0.1356
vn -0.3791 0.9153 0.1356
vn -0.1933 0.9717 0.1356
vn -0.0000 0.2385 -0.9712
vn 0.0465 0.2339 -0.9712
vn 0.0913 0.2203 -0.9712
vn 0.1325 0.1983 -0.9712
vn 0.1686 0.1686 -0.9712
vn 0.1983 0.1325 -0.9712
vn 0.2203 0.0913 -0.9712
vn 0.2339 0.0465 -0.9712
vn 0.2385 -0.0000 -0.9712
vn 0.2339 -0.0465 -0.9712
vn 0.2203 -0.0913 -0.9712
vn 0.1983 -0.1325 -0.9712
vn 0.1686 -0.1686 -0.9712
vn 0.1325 -0.1983 -0.9712
vn 0.0913 -0.2203 -0.9712
vn 0.0465 -0.2339 -0.9712
vn -0.0000 -0.2385 -0.9712
vn -0.0465 -0.2339 -0.9712
vn -0.0913 -0.2203 -0.9712
vn -0.1325 -0.1983 -0.9712
vn -0.1686 -0.1686 -0.9712
vn -0.1983 -0.1325 -0.9712
vn -0.2203 -0.0913 -0.9712
vn -0.2339 -0.0465 -0.9712
vn -0.2385 -0.0000 -0.9712
vn -0.2339 0.0465 -0.9712
vn -0.2203 0.0913 -0.9712
vn -0.1983 0.1325 -0.9712
vn -0.1686 0.1686 -0.9712
vn -0.1325 0.1983 -0.9712
vn -0.0913 0.2203 -0.9712
vn -0.0465 0.2339 -0.9712
vn 0.0363 0.1823 -0.9826
vn 0.0711 0.1718 -0.9826
vn 0.1033 0.1546 -0.9826
vn 0.1315 0.1315 -0.9826
vn 0.1546 0.1033 -0.9826
vn 0.1718 0.0711 -0.9826
vn 0.1823 0.0363 -0.9826
vn 0.1859 -0.0000 -0.9826
vn 0.1823 -0.0363 -0.9826
vn 0.1718 -0.0711 -0.9826
vn 0.1546 -0.1033 -0.9826
vn 0.1315 -0.1315 -0.9826
vn 0.1033 -0.1546 -0.9826
vn 0.0711 -0.1718 -0.9826
vn 0.0363 -0.1823 -0.9826
vn -0.0000 -0.1859 -0.9826
vn -0.0363 -0.1823 -0.9826
vn -0.0711 -0.1718 -0.9826
vn -0.1033 -0.1546 -0.9826
vn -0.1315 -0.1315 -0.9826
vn -0.1546 -0.1033 -0.9826
vn -0.1718 -0.0711 -0.9826
vn -0.1823 -0.0363 -0.9826
vn -0.1859 -0.0000 -0.9826
vn -0.1823 0.0363 -0.9826
vn -0.1718 0.0711 -0.9826
vn -0.1546 0.1033 -0.9826
vn -0.1315 0.1315 -0.9826
vn -0.1033 0.1546 -0.9826
vn -0.0711 0.1718 -0.9826
vn -0.0363 0.1823 -0.9826
vn -0.0000 0.1859 -0.9826
vt 0.500000 0.750000
vt 0.500000 1.000000
vt 0.597545 0.990393
vt 0.548773 0.745196
vt 0.691342 0.961940
vt 0.595671 0.730970
vt 0.777785 0.915735
vt 0.638893 0.707867
vt 0.853553 0.853554
vt 0.676777 0.676777
vt 0.915735 0.777785
vt 0.707867 0.638893
vt 0.961940 0.691342
vt 0.730970 0.595671
vt 0.990393 0.597545
vt 0.745196 0.548773
vt 1.000000 0.500000
vt 0.750000 0.500000
vt 0.990393 0.402455
vt 0.745196 0.451227
vt 0.961940 0.308658
vt 0.730970 0.404329
vt 0.915735 0.222215
vt 0.707867 0.361107
vt 0.853553 0.146447
vt 0.676777 0.323223
vt 0.777785 0.084265
vt 0.638893 0.292133
vt 0.691342 0.038060
vt 0.595671 0.269030
vt 0.597545 0.009607
vt 0.548773 0.254804
vt 0.500000 0.000000
vt 0.500000 0.250000
vt 0.402455 0.009607
vt 0.451227 0.254804
vt 0.308658 0.038060
vt 0.404329 0.269030
vt 0.222215 0.084265
vt 0.361107 0.292133
vt 0.146447 0.146447
vt 0.323223 0.323223
vt 0.084265 0.222215
vt 0.292133 0.361107
vt 0.038060 0.308658
vt 0.269030 0.404329
vt 0.009607 0.402455
vt 0.254804 0.451227
vt 0.000000 0.500000
vt 0.250000 0.500000
vt 0.009607 0.597545
vt 0.254804 0.548773
vt 0.038060 0.691342
vt 0.269030 0.595671
vt 0.084265 0.777785
vt 0.292133 0.638893
vt 0.146447 0.853554
vt 0.323223 0.676777
vt 0.222215 0.915735
vt 0.361107 0.707867
vt 0.308658 0.961940
vt 0.404329 0.730970
vt 0.402455 0.990393
vt 0.451227 0.745196
vt 0.492544 0.537486
vt 0.500000 0.538220
vt 0.485374 0.535311
vt 0.478766 0.531779
vt 0.472974 0.527026
vt 0.468221 0.521234
vt 0.464689 0.514626
vt 0.462514 0.507456
vt 0.461780 0.500000
vt 0.462514 0.492544
vt 0.464689 0.485374
vt 0.468221 0.478766
vt 0.472974 0.472974
vt 0.478766 0.468221
vt 0.485374 0.464689
vt 0.492544 0.462514
vt 0.500000 0.461780
vt 0.507456 0.462514
vt 0.514626 0.464689
vt 0.521234 0.468221
vt 0.527026 0.472974
vt 0.531779 0.478766
vt 0.535311 0.485374
vt 0.537486 0.492544
vt 0.538220 0.500000
vt 0.537486 0.507456
vt 0.535311 0.514626
vt 0.531779 0.521234
vt 0.527026 0.527026
vt 0.521234 0.531779
vt 0.514626 0.535311
vt 0.507456 0.537486
s 1
f 33/1/33 1/2/1 2/3/2 34/4/34
f 34/4/34 2/3/2 3/5/3 35/6/35
f 35/6/35 3/5/3 4/7/4 36/8/36
f 36/8/36 4/7/4 5/9/5 37/10/37
f 37/10/37 5/9/5 6/11/6 38/12/38
f 38/12/38 6/11/6 7/13/7 39/14/39
f 39/14/39 7/13/7 8/15/8 40/16/40
f 40/16/40 8/15/8 9/17/9 41/18/41
f 41/18/41 9/17/9 10/19/10 42/20/42
f 42/20/42 10/19/10 11/21/11 43/22/43
f 43/22/43 11/21/11 12/23/12 44/24/44
f 44/24/44 12/23/12 13/25/13 45/26/45
f 45/26/45 13/25/13 14/27/14 46/28/46
f 46/28/46 14/27/14 15/29/15 47/30/47
f 47/30/47 15/29/15 16/31/16 48/32/48
f 48/32/48 16/31/16 17/33/17 49/34/49
f 49/34/49 17/33/17 18/35/18 50/36/50
f 50/36/50 18/35/18 19/37/19 51/38/51
f 51/38/51 19/37/19 20/39/20 52/40/52
f 52/40/52 20/39/20 21/41/21 53/42/53
f 53/42/53 21/41/21 22/43/22 54/44/54
f 54/44/54 22/43/22 23/45/23 55/46/55
f 55/46/55 23/45/23 24/47/24 56/48/56
f 56/48/56 24/47/24 25/49/25 57/50/57
f 57/50/57 25/49/25 26/51/26 58/52/58
f 58/52/58 26/51/26 27/53/27 59/54/59
f 59/54/59 27/53/27 28/55/28 60/56/60
f 60/56/60 28/55/28 29/57/29 61/58/61
f 61/58/61 29/57/29 30/59/30 62/60/62
f 62/60/62 30/59/30 31/61/31 63/62/63
f 2/3/2 1/2/1 32/63/32 31/61/31 30/59/30 29/57/29 28/55/28 27/53/27 26/51/26 25/49/25 24/47/24 23/45/23 22/43/22 21/41/21 20/39/20 19/37/19 18/35/18 17/33/17 16/31/16 15/29/15 14/27/14 13/25/13 12/23/12 11/21/11 10/19/10 9/17/9 8/15/8 7/13/7 6/11/6 5/9/5 4/7/4 3/5/3
f 63/62/63 31/61/31 32/63/32 64/64/64
f 64/64/64 32/63/32 1/2/1 33/1/33
f 95/65/95 64/64/64 33/1/33 96/66/96
f 94/67/94 63/62/63 64/64/64 95/65/95
f 93/68/93 62/60/62 63/62/63 94/67/94
f 92/69/92 61/58/61 62/60/62 93/68/93
f 91/70/91 60/56/60 61/58/61 92/69/92
f 90/71/90 59/54/59 60/56/60 91/70/91
f 89/72/89 58/52/58 59/54/59 90/71/90
f 88/73/88 57/50/57 58/52/58 89/72/89
f 87/74/87 56/48/56 57/50/57 88/73/88
f 86/75/86 55/46/55 56/48/56 87/74/87
f 85/76/85 54/44/54 55/46/55 86/75/86
f 84/77/84 53/42/53 54/44/54 85/76/85
f 83/78/83 52/40/52 53/42/53 84/77/84
f 82/79/82 51/38/51 52/40/52 83/78/83
f 81/80/81 50/36/50 51/38/51 82/79/82
f 80/81/80 49/34/49 50/36/50 81/80/81
f 79/82/79 48/32/48 49/34/49 80/81/80
f 78/83/78 47/30/47 48/32/48 79/82/79
f 77/84/77 46/28/46 47/30/47 78/83/78
f 76/85/76 45/26/45 46/28/46 77/84/77
f 75/86/75 44/24/44 45/26/45 76/85/76
f 74/87/74 43/22/43 44/24/44 75/86/75
f 73/88/73 42/20/42 43/22/43 74/87/74
f 72/89/72 41/18/41 42/20/42 73/88/73
f 71/90/71 40/16/40 41/18/41 72/89/72
f 70/91/70 39/14/39 40/16/40 71/90/71
f 69/92/69 38/12/38 39/14/39 70/91/70
f 68/93/68 37/10/37 38/12/38 69/92/69
f 67/94/67 36/8/36 37/10/37 68/93/68
f 66/95/66 35/6/35 36/8/36 67/94/67
f 65/96/65 34/4/34 35/6/35 66/95/66
f 96/66/96 33/1/33 34/4/34 65/96/65
